<?xml version="1.0" standalone="no"?>
<!DOCTYPE svg PUBLIC "-//W3C//DTD SVG 20010904//EN"
 "http://www.w3.org/TR/2001/REC-SVG-20010904/DTD/svg10.dtd">
<svg version="1.0" xmlns="http://www.w3.org/2000/svg"
 width="300.000000pt" height="300.000000pt" viewBox="0 0 300.000000 300.000000"
 preserveAspectRatio="xMidYMid meet">
<metadata>
Created by potrace 1.14, written by Peter Selinger 2001-2017
</metadata>
<g transform="translate(0.000000,300.000000) scale(0.100000,-0.100000)"
fill="#000000" stroke="none">
<path d="M0 1500 l0 -1500 1500 0 1500 0 0 1500 0 1500 -1500 0 -1500 0 0
-1500z m2672 434 c63 -20 73 -34 58 -79 -6 -19 -12 -35 -13 -35 -1 0 -24 11
-51 25 -72 36 -143 35 -185 -4 -39 -36 -42 -81 -8 -115 13 -13 67 -38 119 -55
80 -27 103 -39 132 -72 33 -35 36 -45 36 -97 0 -114 -70 -182 -189 -182 -82 0
-132 15 -177 54 l-36 31 16 39 16 38 34 -30 c45 -39 97 -55 157 -50 65 7 99
37 99 88 0 51 -27 72 -135 106 -111 36 -160 78 -170 146 -13 89 32 173 106
196 74 23 105 23 191 -4z m-2489 -21 c13 -21 50 -91 83 -155 32 -65 63 -117
67 -115 4 1 43 70 86 152 69 134 80 150 105 153 15 2 34 1 42 -2 13 -5 13 -9
0 -28 -7 -13 -55 -104 -105 -202 l-91 -179 0 -108 0 -109 -40 0 -40 0 0 113 0
114 -51 94 c-28 52 -76 142 -105 202 l-54 107 40 0 c35 0 42 -4 63 -37z m772
13 c97 -45 154 -139 163 -268 11 -184 -96 -326 -253 -336 -84 -6 -148 17 -202
69 -122 118 -132 331 -24 468 69 87 210 117 316 67z m470 -196 c81 -121 150
-218 152 -216 3 3 6 100 6 218 l2 213 38 3 37 3 0 -315 0 -316 -30 0 c-28 0
-40 15 -177 220 -80 121 -150 220 -155 220 -4 0 -8 -99 -8 -221 l0 -220 -37 3
-38 3 -3 300 c-1 165 0 305 3 312 2 7 17 13 33 13 27 0 41 -18 177 -220z m717
200 c88 -39 141 -111 164 -221 25 -121 -2 -223 -81 -308 -131 -140 -356 -95
-438 88 -32 71 -35 200 -7 275 44 116 140 186 257 186 40 0 77 -7 105 -20z"/>
<path d="M763 1851 c-86 -40 -136 -158 -114 -269 14 -71 38 -110 87 -145 80
-56 182 -43 247 34 92 106 70 295 -41 368 -50 33 -123 38 -179 12z"/>
<path d="M1965 1857 c-78 -36 -124 -117 -125 -220 0 -77 14 -118 59 -170 92
-104 244 -80 306 48 56 114 28 255 -63 319 -49 35 -129 45 -177 23z"/>
</g>
</svg>
